<?xml version="1.0" encoding="UTF-8" standalone="no"?>
<!DOCTYPE svg PUBLIC "-//W3C//DTD SVG 1.1//EN" "http://www.w3.org/Graphics/SVG/1.1/DTD/svg11.dtd">
<svg width="100%" height="100%" viewBox="0 0 35 40" version="1.1" xmlns="http://www.w3.org/2000/svg" xmlns:xlink="http://www.w3.org/1999/xlink" xml:space="preserve" xmlns:serif="http://www.serif.com/" style="fill-rule:evenodd;clip-rule:evenodd;stroke-linejoin:round;stroke-miterlimit:2;">
    <g transform="matrix(1,0,0,1,-0.42,0)">
        <path d="M33.308,9.576L34.245,7.278C34.245,7.278 33.052,6 31.603,4.554C30.154,3.108 27.088,3.959 27.088,3.959L23.594,0L11.325,0L7.832,3.959C7.832,3.959 4.765,3.108 3.316,4.554C2.422,5.448 1.541,6.357 0.675,7.278L1.612,9.576L0.42,12.98C0.42,12.98 3.929,26.253 4.34,27.874C5.15,31.065 5.703,32.299 8.003,33.916C10.303,35.533 14.479,38.342 15.16,38.767C15.842,39.193 16.694,39.917 17.46,39.917C18.228,39.917 19.08,39.193 19.761,38.767C20.443,38.342 24.618,35.533 26.918,33.917C29.218,32.299 29.773,31.065 30.582,27.874C30.993,26.253 34.502,12.98 34.502,12.98L33.308,9.576Z" style="fill:url(#_Linear1);"/>
        <path d="M21.805,7.193C22.316,7.193 26.108,6.469 26.108,6.469C26.108,6.469 30.601,11.895 30.601,13.055C30.601,14.013 30.215,14.389 29.76,14.83C29.663,14.922 29.566,15.02 29.468,15.123L26.098,18.696C26.065,18.732 26.028,18.77 25.988,18.809C25.652,19.146 25.158,19.644 25.506,20.469L25.578,20.639C25.961,21.533 26.434,22.638 25.832,23.757C25.192,24.948 24.095,25.743 23.392,25.611C22.689,25.479 21.038,24.618 20.432,24.225C19.824,23.831 17.9,22.246 17.9,21.64C17.9,21.134 19.284,20.292 19.956,19.884C20.09,19.802 20.196,19.738 20.256,19.697C20.326,19.65 20.442,19.578 20.585,19.49C21.198,19.109 22.306,18.421 22.335,18.116C22.369,17.74 22.355,17.63 21.861,16.701C21.746,16.49 21.627,16.281 21.505,16.074C21.035,15.264 20.507,14.358 20.624,13.709C20.756,12.976 21.905,12.556 22.879,12.199L23.234,12.069L24.248,11.689C25.221,11.325 26.301,10.92 26.478,10.839C26.726,10.725 26.662,10.616 25.915,10.546L25.552,10.508C24.628,10.41 22.922,10.229 22.093,10.46L21.555,10.607C20.624,10.859 19.482,11.167 19.373,11.346L19.317,11.429C19.212,11.578 19.144,11.675 19.26,12.308C19.294,12.496 19.365,12.868 19.453,13.326C19.711,14.668 20.112,16.762 20.163,17.232C20.17,17.299 20.177,17.362 20.185,17.422C20.249,17.947 20.292,18.297 19.682,18.436L19.522,18.473C18.834,18.63 17.825,18.862 17.46,18.862C17.095,18.862 16.085,18.63 15.396,18.472L15.238,18.436C14.628,18.296 14.67,17.947 14.735,17.423L14.757,17.233C14.807,16.761 15.21,14.663 15.467,13.32C15.555,12.864 15.626,12.496 15.66,12.308C15.776,11.675 15.707,11.578 15.603,11.428C15.585,11.404 15.566,11.376 15.547,11.345C15.437,11.167 14.296,10.859 13.364,10.607L12.826,10.46C11.997,10.23 10.292,10.41 9.368,10.508L9.005,10.546C8.258,10.616 8.194,10.725 8.441,10.838C8.619,10.92 9.699,11.324 10.671,11.688L11.686,12.068L12.041,12.2C13.014,12.556 14.164,12.976 14.296,13.709C14.413,14.358 13.886,15.264 13.414,16.073C13.287,16.293 13.164,16.503 13.059,16.701C12.564,17.631 12.551,17.741 12.585,18.116C12.613,18.421 13.721,19.108 14.335,19.489C14.477,19.579 14.594,19.65 14.663,19.697C14.724,19.738 14.829,19.802 14.963,19.883C15.635,20.293 17.019,21.133 17.019,21.64C17.019,22.246 15.095,23.831 14.489,24.225C13.881,24.618 12.23,25.48 11.528,25.611C10.825,25.743 9.728,24.948 9.088,23.757C8.485,22.637 8.958,21.533 9.341,20.638L9.413,20.47C9.763,19.644 9.267,19.146 8.931,18.809C8.891,18.769 8.854,18.731 8.821,18.696L5.452,15.123C5.357,15.023 5.26,14.926 5.16,14.831C4.705,14.389 4.319,14.013 4.319,13.055C4.319,11.895 8.812,6.469 8.812,6.469C8.812,6.469 12.603,7.193 13.115,7.193C13.522,7.193 14.31,6.922 15.131,6.639L15.756,6.427C16.778,6.087 17.46,6.084 17.46,6.084C17.46,6.084 18.141,6.086 19.164,6.427C19.371,6.496 19.579,6.567 19.788,6.639C20.61,6.922 21.398,7.193 21.805,7.193" style="fill:white;fill-rule:nonzero;"/>
        <path d="M21.154,26.384C21.956,26.796 22.524,27.089 22.739,27.224C23.017,27.397 22.848,27.725 22.595,27.904C22.341,28.083 18.936,30.716 18.606,31.007L18.472,31.127C18.154,31.414 17.748,31.779 17.46,31.779C17.172,31.779 16.765,31.413 16.447,31.127L16.314,31.007C15.984,30.717 12.578,28.083 12.325,27.904C12.072,27.725 11.902,27.397 12.18,27.224C12.395,27.089 12.964,26.796 13.767,26.383L14.529,25.99C15.729,25.37 17.226,24.841 17.459,24.841C17.692,24.841 19.189,25.369 20.39,25.99L21.154,26.384Z" style="fill:white;fill-rule:nonzero;"/>
    </g>
    <defs>
        <linearGradient id="_Linear1" x1="0" y1="0" x2="1" y2="0" gradientUnits="userSpaceOnUse" gradientTransform="matrix(34.081,0,0,34.081,0.419,40.199)"><stop offset="0" style="stop-color:rgb(255,86,1);stop-opacity:1"/><stop offset="0.5" style="stop-color:rgb(255,64,0);stop-opacity:1"/><stop offset="1" style="stop-color:rgb(255,31,1);stop-opacity:1"/></linearGradient>
    </defs>
</svg>
