<?xml version="1.0" encoding="UTF-8" standalone="no"?>
<!DOCTYPE svg PUBLIC "-//W3C//DTD SVG 1.1//EN" "http://www.w3.org/Graphics/SVG/1.1/DTD/svg11.dtd">
<svg width="100%" height="100%" viewBox="0 0 76 76" version="1.1" xmlns="http://www.w3.org/2000/svg" xmlns:xlink="http://www.w3.org/1999/xlink" xml:space="preserve" xmlns:serif="http://www.serif.com/" style="fill-rule:evenodd;clip-rule:evenodd;stroke-linejoin:round;stroke-miterlimit:2;">
    <g transform="matrix(1.3333,0,0,-1.3333,0,107.196)">
        <path d="M28.346,80.398C12.691,80.398 0,67.707 0,52.052C0,36.85 11.968,24.443 26.996,23.739C27.444,23.718 27.894,23.706 28.346,23.706C35.604,23.706 42.222,26.435 47.237,30.92C43.915,28.716 40.03,27.448 35.878,27.448C29.128,27.448 23.082,30.797 19.016,36.078C15.882,39.778 13.852,45.247 13.714,51.385L13.714,52.72C13.852,58.857 15.882,64.328 19.016,68.027C23.082,73.308 29.128,76.656 35.878,76.656C40.03,76.656 43.916,75.388 47.239,73.183C42.248,77.648 35.67,80.371 28.453,80.398C28.417,80.398 28.381,80.399 28.345,80.399L28.346,80.398Z" style="fill:url(#_Linear1);fill-rule:nonzero;"/>
        <path d="M19.016,68.025C21.617,71.096 24.977,72.948 28.647,72.948C36.899,72.948 43.588,63.592 43.588,52.051C43.588,40.51 36.899,31.154 28.647,31.154C24.977,31.154 21.617,33.005 19.017,36.076C23.083,30.795 29.128,27.446 35.879,27.446C40.031,27.446 43.915,28.714 47.238,30.918C53.04,36.108 56.693,43.653 56.693,52.051C56.693,60.448 53.04,67.992 47.24,73.182C43.916,75.387 40.031,76.654 35.879,76.654C29.128,76.654 23.083,73.306 19.017,68.025" style="fill:url(#_Linear2);fill-rule:nonzero;"/>
    </g>
    <defs>
        <linearGradient id="_Linear1" x1="0" y1="0" x2="1" y2="0" gradientUnits="userSpaceOnUse" gradientTransform="matrix(3.36435e-15,-54.944,54.944,3.36435e-15,-1278.87,79.474)"><stop offset="0" style="stop-color:rgb(255,27,45);stop-opacity:1"/><stop offset="0.61" style="stop-color:rgb(255,27,45);stop-opacity:1"/><stop offset="1" style="stop-color:rgb(167,0,20);stop-opacity:1"/></linearGradient>
        <linearGradient id="_Linear2" x1="0" y1="0" x2="1" y2="0" gradientUnits="userSpaceOnUse" gradientTransform="matrix(2.97559e-15,-48.595,48.595,2.97559e-15,-1295.88,76.235)"><stop offset="0" style="stop-color:rgb(156,0,0);stop-opacity:1"/><stop offset="0.7" style="stop-color:rgb(255,75,75);stop-opacity:1"/><stop offset="1" style="stop-color:rgb(255,75,75);stop-opacity:1"/></linearGradient>
    </defs>
</svg>
