<?xml version="1.0" encoding="UTF-8" standalone="no"?>
<!DOCTYPE svg PUBLIC "-//W3C//DTD SVG 1.1//EN" "http://www.w3.org/Graphics/SVG/1.1/DTD/svg11.dtd">
<svg width="100%" height="100%" viewBox="0 0 702 576" version="1.1" xmlns="http://www.w3.org/2000/svg" xmlns:xlink="http://www.w3.org/1999/xlink" xml:space="preserve" xmlns:serif="http://www.serif.com/" style="fill-rule:evenodd;clip-rule:evenodd;stroke-linejoin:round;stroke-miterlimit:2;">
    <g transform="matrix(1,0,0,1,-120.145,-193.192)">
        <path d="M513.928,531.515C528.583,533.61 540.056,527.445 549.282,516.68L813.386,224.044C817.862,218.894 820.621,214.128 821.22,209.934C822.366,201.916 814.93,195.818 801.698,193.927C794.778,192.938 786.256,192.979 776.576,193.861L194.096,355.767C194.096,355.767 176.395,360.88 175.108,369.885C173.486,381.233 188.753,384.298 188.753,384.298L426.838,403.213C426.838,403.213 439.327,405.303 448.786,401.62L790.767,206.462C793.626,205.36 796.642,206.043 798.52,207.444C800.38,208.969 800.318,210.848 797.646,212.102L469.795,418.846C461.133,422.769 459.923,426.877 462.609,435.693L485.666,505.448C489.991,518.779 494.997,528.809 513.928,531.515Z" style="fill:rgb(4,217,255);fill-opacity:0.85;fill-rule:nonzero;"/>
    </g>
    <g transform="matrix(1,0,0,1,-120.145,-193.192)">
        <path d="M428.408,431.274C413.758,429.141 402.269,435.275 393.015,446.015L128.137,737.951C123.648,743.09 120.876,747.848 120.265,752.041C119.098,760.055 126.518,766.173 139.745,768.099C146.662,769.106 155.184,769.088 164.867,768.232L747.773,607.867C747.773,607.867 765.488,602.802 766.799,593.801C768.451,582.456 753.192,579.352 753.192,579.352L515.158,559.806C515.158,559.806 502.674,557.683 493.206,561.34L150.709,755.593C147.847,756.687 144.833,755.996 142.959,754.59C141.103,753.061 141.17,751.182 143.845,749.934L472.243,544.059C480.914,540.159 482.135,536.055 479.472,527.232L456.6,457.416C452.311,444.074 447.331,434.03 428.408,431.274Z" style="fill:rgb(4,217,255);fill-opacity:0.85;fill-rule:nonzero;"/>
    </g>
</svg>
